<svg xmlns="http://www.w3.org/2000/svg" version="1.1" xmlns:xlink="http://www.w3.org/1999/xlink" xmlns:svgjs="http://svgjs.com/svgjs" width="1920" height="200" preserveAspectRatio="none" viewBox="0 0 1920 200"><g mask="url(&quot;#SvgjsMask1128&quot;)" fill="none"><rect width="1920" height="200" x="0" y="0" fill="url(#SvgjsLinearGradient1129)"></rect><path d="M1920 0L1001.66 0L1920 32.63z" fill="rgba(255, 255, 255, .1)"></path><path d="M1001.66 0L1920 32.63L1920 83.86L794.79 0z" fill="rgba(255, 255, 255, .075)"></path><path d="M794.79 0L1920 83.86L1920 128.42000000000002L669.0899999999999 0z" fill="rgba(255, 255, 255, .05)"></path><path d="M669.0899999999999 0L1920 128.42000000000002L1920 140.10000000000002L339.00999999999993 0z" fill="rgba(255, 255, 255, .025)"></path><path d="M0 200L170.92 200L0 113.54z" fill="rgba(0, 0, 0, .1)"></path><path d="M0 113.54L170.92 200L392.83 200L0 104.27000000000001z" fill="rgba(0, 0, 0, .075)"></path><path d="M0 104.27000000000001L392.83 200L970.3299999999999 200L0 87.35000000000001z" fill="rgba(0, 0, 0, .05)"></path><path d="M0 87.35000000000001L970.3299999999999 200L1496.1799999999998 200L0 27.080000000000005z" fill="rgba(0, 0, 0, .025)"></path></g><defs><mask id="SvgjsMask1128"><rect width="1920" height="200" fill="#ffffff"></rect></mask><linearGradient x1="22.4%" y1="-215%" x2="77.6%" y2="315%" gradientUnits="userSpaceOnUse" id="SvgjsLinearGradient1129"><stop stop-color="#0e2a47" offset="0"></stop><stop stop-color="rgba(127, 85, 184, 1)" offset="1"></stop></linearGradient></defs></svg>