<svg width="18" height="20" viewBox="0 0 18 20" fill="none" xmlns="http://www.w3.org/2000/svg">
<g filter="url(#filter0_d)">
<path d="M1.33333 0H0V1.33333H1.33333V0Z" fill="white"/>
<path d="M2.66683 0H1.3335V1.33333H2.66683V0Z" fill="white"/>
<path d="M14.6668 0H13.3335V1.33333H14.6668V0Z" fill="white"/>
<path d="M15.9998 0H14.6665V1.33333H15.9998V0Z" fill="white"/>
<path d="M1.33333 1.33331H0V2.66665H1.33333V1.33331Z" fill="white"/>
<path d="M2.66683 1.33331H1.3335V2.66665H2.66683V1.33331Z" fill="white"/>
<path d="M3.99984 1.33331H2.6665V2.66665H3.99984V1.33331Z" fill="white"/>
<path d="M13.3333 1.33331H12V2.66665H13.3333V1.33331Z" fill="white"/>
<path d="M14.6668 1.33331H13.3335V2.66665H14.6668V1.33331Z" fill="white"/>
<path d="M15.9998 1.33331H14.6665V2.66665H15.9998V1.33331Z" fill="white"/>
<path d="M2.66683 2.66669H1.3335V4.00002H2.66683V2.66669Z" fill="white"/>
<path d="M3.99984 2.66669H2.6665V4.00002H3.99984V2.66669Z" fill="white"/>
<path d="M5.33333 2.66669H4V4.00002H5.33333V2.66669Z" fill="white"/>
<path d="M11.9998 2.66669H10.6665V4.00002H11.9998V2.66669Z" fill="white"/>
<path d="M13.3333 2.66669H12V4.00002H13.3333V2.66669Z" fill="white"/>
<path d="M14.6668 2.66669H13.3335V4.00002H14.6668V2.66669Z" fill="white"/>
<path d="M3.99984 4H2.6665V5.33333H3.99984V4Z" fill="white"/>
<path d="M5.33333 4H4V5.33333H5.33333V4Z" fill="white"/>
<path d="M6.66683 4H5.3335V5.33333H6.66683V4Z" fill="white"/>
<path d="M10.6668 4H9.3335V5.33333H10.6668V4Z" fill="white"/>
<path d="M11.9998 4H10.6665V5.33333H11.9998V4Z" fill="white"/>
<path d="M13.3333 4H12V5.33333H13.3333V4Z" fill="white"/>
<path d="M5.33333 5.33331H4V6.66665H5.33333V5.33331Z" fill="white"/>
<path d="M6.66683 5.33331H5.3335V6.66665H6.66683V5.33331Z" fill="white"/>
<path d="M7.99984 5.33331H6.6665V6.66665H7.99984V5.33331Z" fill="white"/>
<path d="M9.33333 5.33331H8V6.66665H9.33333V5.33331Z" fill="white"/>
<path d="M10.6668 5.33331H9.3335V6.66665H10.6668V5.33331Z" fill="white"/>
<path d="M11.9998 5.33331H10.6665V6.66665H11.9998V5.33331Z" fill="white"/>
<path d="M6.66683 6.66669H5.3335V8.00002H6.66683V6.66669Z" fill="white"/>
<path d="M7.99984 6.66669H6.6665V8.00002H7.99984V6.66669Z" fill="white"/>
<path d="M9.33333 6.66669H8V8.00002H9.33333V6.66669Z" fill="white"/>
<path d="M10.6668 6.66669H9.3335V8.00002H10.6668V6.66669Z" fill="white"/>
<path d="M6.66683 8H5.3335V9.33333H6.66683V8Z" fill="white"/>
<path d="M7.99984 8H6.6665V9.33333H7.99984V8Z" fill="white"/>
<path d="M9.33333 8H8V9.33333H9.33333V8Z" fill="white"/>
<path d="M10.6668 8H9.3335V9.33333H10.6668V8Z" fill="white"/>
<path d="M5.33333 9.33331H4V10.6666H5.33333V9.33331Z" fill="white"/>
<path d="M6.66683 9.33331H5.3335V10.6666H6.66683V9.33331Z" fill="white"/>
<path d="M7.99984 9.33331H6.6665V10.6666H7.99984V9.33331Z" fill="white"/>
<path d="M9.33333 9.33331H8V10.6666H9.33333V9.33331Z" fill="white"/>
<path d="M10.6668 9.33331H9.3335V10.6666H10.6668V9.33331Z" fill="white"/>
<path d="M11.9998 9.33331H10.6665V10.6666H11.9998V9.33331Z" fill="white"/>
<path d="M3.99984 10.6667H2.6665V12H3.99984V10.6667Z" fill="white"/>
<path d="M5.33333 10.6667H4V12H5.33333V10.6667Z" fill="white"/>
<path d="M6.66683 10.6667H5.3335V12H6.66683V10.6667Z" fill="white"/>
<path d="M10.6668 10.6667H9.3335V12H10.6668V10.6667Z" fill="white"/>
<path d="M11.9998 10.6667H10.6665V12H11.9998V10.6667Z" fill="white"/>
<path d="M13.3333 10.6667H12V12H13.3333V10.6667Z" fill="white"/>
<path d="M2.66683 12H1.3335V13.3333H2.66683V12Z" fill="white"/>
<path d="M3.99984 12H2.6665V13.3333H3.99984V12Z" fill="white"/>
<path d="M5.33333 12H4V13.3333H5.33333V12Z" fill="white"/>
<path d="M11.9998 12H10.6665V13.3333H11.9998V12Z" fill="white"/>
<path d="M13.3333 12H12V13.3333H13.3333V12Z" fill="white"/>
<path d="M14.6668 12H13.3335V13.3333H14.6668V12Z" fill="white"/>
<path d="M1.33333 13.3333H0V14.6666H1.33333V13.3333Z" fill="white"/>
<path d="M2.66683 13.3333H1.3335V14.6666H2.66683V13.3333Z" fill="white"/>
<path d="M3.99984 13.3333H2.6665V14.6666H3.99984V13.3333Z" fill="white"/>
<path d="M13.3333 13.3333H12V14.6666H13.3333V13.3333Z" fill="white"/>
<path d="M14.6668 13.3333H13.3335V14.6666H14.6668V13.3333Z" fill="white"/>
<path d="M15.9998 13.3333H14.6665V14.6666H15.9998V13.3333Z" fill="white"/>
<path d="M1.33333 14.6667H0V16H1.33333V14.6667Z" fill="white"/>
<path d="M2.66683 14.6667H1.3335V16H2.66683V14.6667Z" fill="white"/>
<path d="M14.6668 14.6667H13.3335V16H14.6668V14.6667Z" fill="white"/>
<path d="M15.9998 14.6667H14.6665V16H15.9998V14.6667Z" fill="white"/>
</g>
<defs>
<filter id="filter0_d" x="0" y="0" width="18" height="20" filterUnits="userSpaceOnUse" color-interpolation-filters="sRGB">
<feFlood flood-opacity="0" result="BackgroundImageFix"/>
<feColorMatrix in="SourceAlpha" type="matrix" values="0 0 0 0 0 0 0 0 0 0 0 0 0 0 0 0 0 0 127 0"/>
<feOffset dx="2" dy="4"/>
<feColorMatrix type="matrix" values="0 0 0 0 0 0 0 0 0 0 0 0 0 0 0 0 0 0 0.15 0"/>
<feBlend mode="normal" in2="BackgroundImageFix" result="effect1_dropShadow"/>
<feBlend mode="normal" in="SourceGraphic" in2="effect1_dropShadow" result="shape"/>
</filter>
</defs>
</svg>
