<svg width="36" height="36" viewBox="0 0 36 36" fill="none" xmlns="http://www.w3.org/2000/svg">
<g filter="url(#filter0_d)">
<path d="M7.99999 0H5.33333V2.66667H7.99999V0Z" fill="#DC1313"/>
<path d="M10.6667 0H8V2.66667H10.6667V0Z" fill="#DC1313"/>
<path d="M13.3333 0H10.6667V2.66667H13.3333V0Z" fill="#DC1313"/>
<path d="M21.3333 0H18.6667V2.66667H21.3333V0Z" fill="#DC1313"/>
<path d="M24 0H21.3333V2.66667H24V0Z" fill="#DC1313"/>
<path d="M26.6667 0H24V2.66667H26.6667V0Z" fill="#DC1313"/>
<path d="M5.33334 2.66675H2.66667V5.33341H5.33334V2.66675Z" fill="#DC1313"/>
<path d="M7.99999 2.66675H5.33333V5.33341H7.99999V2.66675Z" fill="#DC1313"/>
<path d="M10.6667 2.66675H8V5.33341H10.6667V2.66675Z" fill="#801414"/>
<path d="M13.3333 2.66675H10.6667V5.33341H13.3333V2.66675Z" fill="#801414"/>
<path d="M16 2.66675H13.3333V5.33341H16V2.66675Z" fill="#DC1313"/>
<path d="M18.6667 2.66675H16V5.33341H18.6667V2.66675Z" fill="#DC1313"/>
<path d="M21.3333 2.66675H18.6667V5.33341H21.3333V2.66675Z" fill="#801414"/>
<path d="M24 2.66675H21.3333V5.33341H24V2.66675Z" fill="#801414"/>
<path d="M26.6667 2.66675H24V5.33341H26.6667V2.66675Z" fill="#DC1313"/>
<path d="M29.3333 2.66675H26.6667V5.33341H29.3333V2.66675Z" fill="#DC1313"/>
<path d="M5.33334 5.33325H2.66667V7.99992H5.33334V5.33325Z" fill="#DC1313"/>
<path d="M7.99999 5.33325H5.33333V7.99992H7.99999V5.33325Z" fill="#DC1313"/>
<path d="M10.6667 5.33325H8V7.99992H10.6667V5.33325Z" fill="#DC1313"/>
<path d="M13.3333 5.33325H10.6667V7.99992H13.3333V5.33325Z" fill="#801414"/>
<path d="M16 5.33325H13.3333V7.99992H16V5.33325Z" fill="#DC1313"/>
<path d="M18.6667 5.33325H16V7.99992H18.6667V5.33325Z" fill="#DC1313"/>
<path d="M21.3333 5.33325H18.6667V7.99992H21.3333V5.33325Z" fill="#801414"/>
<path d="M24 5.33325H21.3333V7.99992H24V5.33325Z" fill="#DC1313"/>
<path d="M26.6667 5.33325H24V7.99992H26.6667V5.33325Z" fill="#DC1313"/>
<path d="M29.3333 5.33325H26.6667V7.99992H29.3333V5.33325Z" fill="#DC1313"/>
<path d="M2.66667 8H0V10.6667H2.66667V8Z" fill="#CBDBFC"/>
<path d="M5.33334 8H2.66667V10.6667H5.33334V8Z" fill="#B44545"/>
<path d="M7.99999 8H5.33333V10.6667H7.99999V8Z" fill="#CBDBFC"/>
<path d="M10.6667 8H8V10.6667H10.6667V8Z" fill="#CBDBFC"/>
<path d="M13.3333 8H10.6667V10.6667H13.3333V8Z" fill="white"/>
<path d="M16 8H13.3333V10.6667H16V8Z" fill="white"/>
<path d="M18.6667 8H16V10.6667H18.6667V8Z" fill="white"/>
<path d="M21.3333 8H18.6667V10.6667H21.3333V8Z" fill="#DC1313"/>
<path d="M24 8H21.3333V10.6667H24V8Z" fill="#DC1313"/>
<path d="M26.6667 8H24V10.6667H26.6667V8Z" fill="white"/>
<path d="M29.3333 8H26.6667V10.6667H29.3333V8Z" fill="white"/>
<path d="M32 8H29.3333V10.6667H32V8Z" fill="white"/>
<path d="M2.66667 10.6667H0V13.3334H2.66667V10.6667Z" fill="#CBDBFC"/>
<path d="M5.33334 10.6667H2.66667V13.3334H5.33334V10.6667Z" fill="#B44545"/>
<path d="M7.99999 10.6667H5.33333V13.3334H7.99999V10.6667Z" fill="#CBDBFC"/>
<path d="M10.6667 10.6667H8V13.3334H10.6667V10.6667Z" fill="#CBDBFC"/>
<path d="M13.3333 10.6667H10.6667V13.3334H13.3333V10.6667Z" fill="white"/>
<path d="M16 10.6667H13.3333V13.3334H16V10.6667Z" fill="white"/>
<path d="M18.6667 10.6667H16V13.3334H18.6667V10.6667Z" fill="white"/>
<path d="M21.3333 10.6667H18.6667V13.3334H21.3333V10.6667Z" fill="#DC1313"/>
<path d="M24 10.6667H21.3333V13.3334H24V10.6667Z" fill="#DC1313"/>
<path d="M26.6667 10.6667H24V13.3334H26.6667V10.6667Z" fill="white"/>
<path d="M29.3333 10.6667H26.6667V13.3334H29.3333V10.6667Z" fill="white"/>
<path d="M32 10.6667H29.3333V13.3334H32V10.6667Z" fill="white"/>
<path d="M2.66667 13.3333H0V15.9999H2.66667V13.3333Z" fill="#CBDBFC"/>
<path d="M5.33334 13.3333H2.66667V15.9999H5.33334V13.3333Z" fill="#B44545"/>
<path d="M7.99999 13.3333H5.33333V15.9999H7.99999V13.3333Z" fill="#CBDBFC"/>
<path d="M10.6667 13.3333H8V15.9999H10.6667V13.3333Z" fill="#CBDBFC"/>
<path d="M13.3333 13.3333H10.6667V15.9999H13.3333V13.3333Z" fill="white"/>
<path d="M16 13.3333H13.3333V15.9999H16V13.3333Z" fill="white"/>
<path d="M18.6667 13.3333H16V15.9999H18.6667V13.3333Z" fill="white"/>
<path d="M21.3333 13.3333H18.6667V15.9999H21.3333V13.3333Z" fill="#DC1313"/>
<path d="M24 13.3333H21.3333V15.9999H24V13.3333Z" fill="#DC1313"/>
<path d="M26.6667 13.3333H24V15.9999H26.6667V13.3333Z" fill="white"/>
<path d="M29.3333 13.3333H26.6667V15.9999H29.3333V13.3333Z" fill="white"/>
<path d="M32 13.3333H29.3333V15.9999H32V13.3333Z" fill="white"/>
<path d="M5.33334 16H2.66667V18.6667H5.33334V16Z" fill="#CBDBFC"/>
<path d="M7.99999 16H5.33333V18.6667H7.99999V16Z" fill="#B44545"/>
<path d="M10.6667 16H8V18.6667H10.6667V16Z" fill="#CBDBFC"/>
<path d="M13.3333 16H10.6667V18.6667H13.3333V16Z" fill="#CBDBFC"/>
<path d="M16 16H13.3333V18.6667H16V16Z" fill="#CBDBFC"/>
<path d="M18.6667 16H16V18.6667H18.6667V16Z" fill="#CBDBFC"/>
<path d="M21.3333 16H18.6667V18.6667H21.3333V16Z" fill="#DC1313"/>
<path d="M24 16H21.3333V18.6667H24V16Z" fill="#DC1313"/>
<path d="M26.6667 16H24V18.6667H26.6667V16Z" fill="#CBDBFC"/>
<path d="M29.3333 16H26.6667V18.6667H29.3333V16Z" fill="#CBDBFC"/>
<path d="M5.33334 18.6667H2.66667V21.3334H5.33334V18.6667Z" fill="#CBDBFC"/>
<path d="M7.99999 18.6667H5.33333V21.3334H7.99999V18.6667Z" fill="#B44545"/>
<path d="M10.6667 18.6667H8V21.3334H10.6667V18.6667Z" fill="#CBDBFC"/>
<path d="M13.3333 18.6667H10.6667V21.3334H13.3333V18.6667Z" fill="#CBDBFC"/>
<path d="M16 18.6667H13.3333V21.3334H16V18.6667Z" fill="white"/>
<path d="M18.6667 18.6667H16V21.3334H18.6667V18.6667Z" fill="white"/>
<path d="M21.3333 18.6667H18.6667V21.3334H21.3333V18.6667Z" fill="#DC1313"/>
<path d="M24 18.6667H21.3333V21.3334H24V18.6667Z" fill="#DC1313"/>
<path d="M26.6667 18.6667H24V21.3334H26.6667V18.6667Z" fill="white"/>
<path d="M29.3333 18.6667H26.6667V21.3334H29.3333V18.6667Z" fill="white"/>
<path d="M5.33334 21.3333H2.66667V23.9999H5.33334V21.3333Z" fill="#CBDBFC"/>
<path d="M7.99999 21.3333H5.33333V23.9999H7.99999V21.3333Z" fill="#B44545"/>
<path d="M10.6667 21.3333H8V23.9999H10.6667V21.3333Z" fill="#CBDBFC"/>
<path d="M13.3333 21.3333H10.6667V23.9999H13.3333V21.3333Z" fill="#CBDBFC"/>
<path d="M16 21.3333H13.3333V23.9999H16V21.3333Z" fill="white"/>
<path d="M18.6667 21.3333H16V23.9999H18.6667V21.3333Z" fill="white"/>
<path d="M21.3333 21.3333H18.6667V23.9999H21.3333V21.3333Z" fill="#DC1313"/>
<path d="M24 21.3333H21.3333V23.9999H24V21.3333Z" fill="#DC1313"/>
<path d="M26.6667 21.3333H24V23.9999H26.6667V21.3333Z" fill="white"/>
<path d="M29.3333 21.3333H26.6667V23.9999H29.3333V21.3333Z" fill="white"/>
<path d="M5.33334 24H2.66667V26.6667H5.33334V24Z" fill="#CBDBFC"/>
<path d="M7.99999 24H5.33333V26.6667H7.99999V24Z" fill="#B44545"/>
<path d="M10.6667 24H8V26.6667H10.6667V24Z" fill="#CBDBFC"/>
<path d="M13.3333 24H10.6667V26.6667H13.3333V24Z" fill="#CBDBFC"/>
<path d="M16 24H13.3333V26.6667H16V24Z" fill="white"/>
<path d="M18.6667 24H16V26.6667H18.6667V24Z" fill="white"/>
<path d="M21.3333 24H18.6667V26.6667H21.3333V24Z" fill="#DC1313"/>
<path d="M24 24H21.3333V26.6667H24V24Z" fill="#DC1313"/>
<path d="M26.6667 24H24V26.6667H26.6667V24Z" fill="white"/>
<path d="M29.3333 24H26.6667V26.6667H29.3333V24Z" fill="white"/>
<path d="M5.33334 26.6667H2.66667V29.3334H5.33334V26.6667Z" fill="#CBDBFC"/>
<path d="M7.99999 26.6667H5.33333V29.3334H7.99999V26.6667Z" fill="#B44545"/>
<path d="M10.6667 26.6667H8V29.3334H10.6667V26.6667Z" fill="#CBDBFC"/>
<path d="M13.3333 26.6667H10.6667V29.3334H13.3333V26.6667Z" fill="#CBDBFC"/>
<path d="M16 26.6667H13.3333V29.3334H16V26.6667Z" fill="white"/>
<path d="M18.6667 26.6667H16V29.3334H18.6667V26.6667Z" fill="white"/>
<path d="M21.3333 26.6667H18.6667V29.3334H21.3333V26.6667Z" fill="#DC1313"/>
<path d="M24 26.6667H21.3333V29.3334H24V26.6667Z" fill="#DC1313"/>
<path d="M26.6667 26.6667H24V29.3334H26.6667V26.6667Z" fill="white"/>
<path d="M29.3333 26.6667H26.6667V29.3334H29.3333V26.6667Z" fill="white"/>
<path d="M5.33334 29.3333H2.66667V31.9999H5.33334V29.3333Z" fill="#CBDBFC"/>
<path d="M7.99999 29.3333H5.33333V31.9999H7.99999V29.3333Z" fill="#B44545"/>
<path d="M10.6667 29.3333H8V31.9999H10.6667V29.3333Z" fill="#CBDBFC"/>
<path d="M13.3333 29.3333H10.6667V31.9999H13.3333V29.3333Z" fill="#CBDBFC"/>
<path d="M16 29.3333H13.3333V31.9999H16V29.3333Z" fill="white"/>
<path d="M18.6667 29.3333H16V31.9999H18.6667V29.3333Z" fill="white"/>
<path d="M21.3333 29.3333H18.6667V31.9999H21.3333V29.3333Z" fill="#DC1313"/>
<path d="M24 29.3333H21.3333V31.9999H24V29.3333Z" fill="#DC1313"/>
<path d="M26.6667 29.3333H24V31.9999H26.6667V29.3333Z" fill="white"/>
<path d="M29.3333 29.3333H26.6667V31.9999H29.3333V29.3333Z" fill="white"/>
</g>
<defs>
<filter id="filter0_d" x="0" y="0" width="36" height="36" filterUnits="userSpaceOnUse" color-interpolation-filters="sRGB">
<feFlood flood-opacity="0" result="BackgroundImageFix"/>
<feColorMatrix in="SourceAlpha" type="matrix" values="0 0 0 0 0 0 0 0 0 0 0 0 0 0 0 0 0 0 127 0"/>
<feOffset dx="4" dy="4"/>
<feColorMatrix type="matrix" values="0 0 0 0 0 0 0 0 0 0 0 0 0 0 0 0 0 0 0.15 0"/>
<feBlend mode="normal" in2="BackgroundImageFix" result="effect1_dropShadow"/>
<feBlend mode="normal" in="SourceGraphic" in2="effect1_dropShadow" result="shape"/>
</filter>
</defs>
</svg>
