<svg width="23" height="20" viewBox="0 0 23 20" fill="none" xmlns="http://www.w3.org/2000/svg">
<g filter="url(#filter0_d)">
<path d="M8.72749 0H7.27295V1.45455H8.72749V0Z" fill="white"/>
<path d="M10.1816 0H8.72705V1.45455H10.1816V0Z" fill="white"/>
<path d="M7.2729 1.45453H5.81836V2.90907H7.2729V1.45453Z" fill="white"/>
<path d="M8.72749 1.45453H7.27295V2.90907H8.72749V1.45453Z" fill="white"/>
<path d="M10.1816 1.45453H8.72705V2.90907H10.1816V1.45453Z" fill="white"/>
<path d="M5.81832 2.90912H4.36377V4.36366H5.81832V2.90912Z" fill="white"/>
<path d="M7.2729 2.90912H5.81836V4.36366H7.2729V2.90912Z" fill="white"/>
<path d="M8.72749 2.90912H7.27295V4.36366H8.72749V2.90912Z" fill="white"/>
<path d="M10.1816 2.90912H8.72705V4.36366H10.1816V2.90912Z" fill="white"/>
<path d="M4.36373 4.36365H2.90918V5.81819H4.36373V4.36365Z" fill="white"/>
<path d="M5.81832 4.36365H4.36377V5.81819H5.81832V4.36365Z" fill="white"/>
<path d="M7.2729 4.36365H5.81836V5.81819H7.2729V4.36365Z" fill="white"/>
<path d="M8.72749 4.36365H7.27295V5.81819H8.72749V4.36365Z" fill="white"/>
<path d="M10.1816 4.36365H8.72705V5.81819H10.1816V4.36365Z" fill="white"/>
<path d="M2.90914 5.81818H1.45459V7.27272H2.90914V5.81818Z" fill="white"/>
<path d="M4.36373 5.81818H2.90918V7.27272H4.36373V5.81818Z" fill="white"/>
<path d="M5.81832 5.81818H4.36377V7.27272H5.81832V5.81818Z" fill="white"/>
<path d="M7.2729 5.81818H5.81836V7.27272H7.2729V5.81818Z" fill="white"/>
<path d="M8.72749 5.81818H7.27295V7.27272H8.72749V5.81818Z" fill="white"/>
<path d="M10.1816 5.81818H8.72705V7.27272H10.1816V5.81818Z" fill="white"/>
<path d="M20.3635 5.81818H10.1816V10.1818H20.3635V5.81818Z" fill="white"/>
<path d="M1.45455 7.27271H0V8.72725H1.45455V7.27271Z" fill="white"/>
<path d="M2.90914 7.27271H1.45459V8.72725H2.90914V7.27271Z" fill="white"/>
<path d="M4.36373 7.27271H2.90918V8.72725H4.36373V7.27271Z" fill="white"/>
<path d="M5.81832 7.27271H4.36377V8.72725H5.81832V7.27271Z" fill="white"/>
<path d="M7.2729 7.27271H5.81836V8.72725H7.2729V7.27271Z" fill="white"/>
<path d="M8.72749 7.27271H7.27295V8.72725H8.72749V7.27271Z" fill="white"/>
<path d="M10.1816 7.27271H8.72705V8.72725H10.1816V7.27271Z" fill="white"/>
<path d="M2.90914 8.72729H1.45459V10.1818H2.90914V8.72729Z" fill="white"/>
<path d="M4.36373 8.72729H2.90918V10.1818H4.36373V8.72729Z" fill="white"/>
<path d="M5.81832 8.72729H4.36377V10.1818H5.81832V8.72729Z" fill="white"/>
<path d="M7.2729 8.72729H5.81836V10.1818H7.2729V8.72729Z" fill="white"/>
<path d="M8.72749 8.72729H7.27295V10.1818H8.72749V8.72729Z" fill="white"/>
<path d="M10.1816 8.72729H8.72705V10.1818H10.1816V8.72729Z" fill="white"/>
<path d="M4.36373 10.1818H2.90918V11.6364H4.36373V10.1818Z" fill="white"/>
<path d="M5.81832 10.1818H4.36377V11.6364H5.81832V10.1818Z" fill="white"/>
<path d="M7.2729 10.1818H5.81836V11.6364H7.2729V10.1818Z" fill="white"/>
<path d="M8.72749 10.1818H7.27295V11.6364H8.72749V10.1818Z" fill="white"/>
<path d="M10.1816 10.1818H8.72705V11.6364H10.1816V10.1818Z" fill="white"/>
<path d="M5.81832 11.6364H4.36377V13.0909H5.81832V11.6364Z" fill="white"/>
<path d="M7.2729 11.6364H5.81836V13.0909H7.2729V11.6364Z" fill="white"/>
<path d="M8.72749 11.6364H7.27295V13.0909H8.72749V11.6364Z" fill="white"/>
<path d="M10.1816 11.6364H8.72705V13.0909H10.1816V11.6364Z" fill="white"/>
<path d="M7.2729 13.0909H5.81836V14.5454H7.2729V13.0909Z" fill="white"/>
<path d="M8.72749 13.0909H7.27295V14.5454H8.72749V13.0909Z" fill="white"/>
<path d="M10.1816 13.0909H8.72705V14.5454H10.1816V13.0909Z" fill="white"/>
<path d="M8.72749 14.5455H7.27295V16H8.72749V14.5455Z" fill="white"/>
<path d="M10.1816 14.5455H8.72705V16H10.1816V14.5455Z" fill="white"/>
</g>
<defs>
<filter id="filter0_d" x="0" y="0" width="22.3636" height="20" filterUnits="userSpaceOnUse" color-interpolation-filters="sRGB">
<feFlood flood-opacity="0" result="BackgroundImageFix"/>
<feColorMatrix in="SourceAlpha" type="matrix" values="0 0 0 0 0 0 0 0 0 0 0 0 0 0 0 0 0 0 127 0"/>
<feOffset dx="2" dy="4"/>
<feColorMatrix type="matrix" values="0 0 0 0 0 0 0 0 0 0 0 0 0 0 0 0 0 0 0.15 0"/>
<feBlend mode="normal" in2="BackgroundImageFix" result="effect1_dropShadow"/>
<feBlend mode="normal" in="SourceGraphic" in2="effect1_dropShadow" result="shape"/>
</filter>
</defs>
</svg>
