<svg width="20" height="22" viewBox="0 0 20 22" fill="none" xmlns="http://www.w3.org/2000/svg">
<g filter="url(#filter0_d)">
<path d="M10.5263 0H8.77191V1.75439H10.5263V0Z" fill="white"/>
<path d="M8.7719 1.75439H7.01752V3.50878H8.7719V1.75439Z" fill="white"/>
<path d="M10.5263 1.75439H8.77191V3.50878H10.5263V1.75439Z" fill="white"/>
<path d="M12.2807 1.75439H10.5263V3.50878H12.2807V1.75439Z" fill="white"/>
<path d="M7.01757 3.50879H5.26318V5.26317H7.01757V3.50879Z" fill="white"/>
<path d="M8.7719 3.50879H7.01752V5.26317H8.7719V3.50879Z" fill="white"/>
<path d="M10.5263 3.50879H8.77191V5.26317H10.5263V3.50879Z" fill="white"/>
<path d="M12.2807 3.50879H10.5263V5.26317H12.2807V3.50879Z" fill="white"/>
<path d="M14.0351 3.50879H12.2807V5.26317H14.0351V3.50879Z" fill="white"/>
<path d="M5.26318 5.26318H3.50879V7.01757H5.26318V5.26318Z" fill="white"/>
<path d="M7.01757 5.26318H5.26318V7.01757H7.01757V5.26318Z" fill="white"/>
<path d="M8.7719 5.26318H7.01752V7.01757H8.7719V5.26318Z" fill="white"/>
<path d="M10.5263 5.26318H8.77191V7.01757H10.5263V5.26318Z" fill="white"/>
<path d="M12.2807 5.26318H10.5263V7.01757H12.2807V5.26318Z" fill="white"/>
<path d="M14.0351 5.26318H12.2807V7.01757H14.0351V5.26318Z" fill="white"/>
<path d="M15.7895 5.26318H14.0351V7.01757H15.7895V5.26318Z" fill="white"/>
<path d="M3.50878 7.01758H1.75439V8.77196H3.50878V7.01758Z" fill="white"/>
<path d="M5.26318 7.01758H3.50879V8.77196H5.26318V7.01758Z" fill="white"/>
<path d="M7.01757 7.01758H5.26318V8.77196H7.01757V7.01758Z" fill="white"/>
<path d="M8.7719 7.01758H7.01752V8.77196H8.7719V7.01758Z" fill="white"/>
<path d="M10.5263 7.01758H8.77191V8.77196H10.5263V7.01758Z" fill="white"/>
<path d="M12.2807 7.01758H10.5263V8.77196H12.2807V7.01758Z" fill="white"/>
<path d="M14.0351 7.01758H12.2807V8.77196H14.0351V7.01758Z" fill="white"/>
<path d="M15.7895 7.01758H14.0351V8.77196H15.7895V7.01758Z" fill="white"/>
<path d="M17.5439 7.01758H15.7895V8.77196H17.5439V7.01758Z" fill="white"/>
<path d="M1.75439 8.77197H0V10.5264H1.75439V8.77197Z" fill="white"/>
<path d="M3.50878 8.77197H1.75439V10.5264H3.50878V8.77197Z" fill="white"/>
<path d="M5.26318 8.77197H3.50879V10.5264H5.26318V8.77197Z" fill="white"/>
<path d="M7.01757 8.77197H5.26318V10.5264H7.01757V8.77197Z" fill="white"/>
<path d="M8.7719 8.77197H7.01752V10.5264H8.7719V8.77197Z" fill="white"/>
<path d="M10.5263 8.77197H8.77191V10.5264H10.5263V8.77197Z" fill="white"/>
<path d="M12.2807 8.77197H10.5263V10.5264H12.2807V8.77197Z" fill="white"/>
<path d="M14.0351 8.77197H12.2807V10.5264H14.0351V8.77197Z" fill="white"/>
<path d="M15.7895 8.77197H14.0351V10.5264H15.7895V8.77197Z" fill="white"/>
<path d="M17.5439 8.77197H15.7895V10.5264H17.5439V8.77197Z" fill="white"/>
<path d="M19.2983 8.77197H17.5439V10.5264H19.2983V8.77197Z" fill="white"/>
<path d="M3.50878 10.5264H1.75439V12.2808H3.50878V10.5264Z" fill="white"/>
<path d="M5.26318 10.5264H3.50879V12.2808H5.26318V10.5264Z" fill="white"/>
<path d="M7.01757 10.5264H5.26318V12.2808H7.01757V10.5264Z" fill="white"/>
<path d="M8.7719 10.5264H7.01752V12.2808H8.7719V10.5264Z" fill="white"/>
<path d="M10.5263 10.5264H8.77191V12.2808H10.5263V10.5264Z" fill="white"/>
<path d="M12.2807 10.5264H10.5263V12.2808H12.2807V10.5264Z" fill="white"/>
<path d="M14.0351 10.5264H12.2807V12.2808H14.0351V10.5264Z" fill="white"/>
<path d="M15.7895 10.5264H14.0351V12.2808H15.7895V10.5264Z" fill="white"/>
<path d="M17.5439 10.5264H15.7895V12.2808H17.5439V10.5264Z" fill="white"/>
<path d="M3.50878 12.2808H1.75439V14.0351H3.50878V12.2808Z" fill="white"/>
<path d="M5.26318 12.2808H3.50879V14.0351H5.26318V12.2808Z" fill="white"/>
<path d="M7.01757 12.2808H5.26318V14.0351H7.01757V12.2808Z" fill="white"/>
<path d="M8.7719 12.2808H7.01752V14.0351H8.7719V12.2808Z" fill="white"/>
<path d="M10.5263 12.2808H8.77191V14.0351H10.5263V12.2808Z" fill="white"/>
<path d="M12.2807 12.2808H10.5263V14.0351H12.2807V12.2808Z" fill="white"/>
<path d="M14.0351 12.2808H12.2807V14.0351H14.0351V12.2808Z" fill="white"/>
<path d="M15.7895 12.2808H14.0351V14.0351H15.7895V12.2808Z" fill="white"/>
<path d="M17.5439 12.2808H15.7895V14.0351H17.5439V12.2808Z" fill="white"/>
<path d="M3.50878 14.0352H1.75439V15.7895H3.50878V14.0352Z" fill="white"/>
<path d="M5.26318 14.0352H3.50879V15.7895H5.26318V14.0352Z" fill="white"/>
<path d="M7.01757 14.0352H5.26318V15.7895H7.01757V14.0352Z" fill="white"/>
<path d="M14.0351 14.0352H12.2807V15.7895H14.0351V14.0352Z" fill="white"/>
<path d="M15.7895 14.0352H14.0351V15.7895H15.7895V14.0352Z" fill="white"/>
<path d="M17.5439 14.0352H15.7895V15.7895H17.5439V14.0352Z" fill="white"/>
<path d="M3.50878 15.7896H1.75439V17.5439H3.50878V15.7896Z" fill="white"/>
<path d="M5.26318 15.7896H3.50879V17.5439H5.26318V15.7896Z" fill="white"/>
<path d="M7.01757 15.7896H5.26318V17.5439H7.01757V15.7896Z" fill="white"/>
<path d="M12.2807 15.7896H10.5263V17.5439H12.2807V15.7896Z" fill="white"/>
<path d="M14.0351 15.7896H12.2807V17.5439H14.0351V15.7896Z" fill="white"/>
<path d="M15.7895 15.7896H14.0351V17.5439H15.7895V15.7896Z" fill="white"/>
<path d="M17.5439 15.7896H15.7895V17.5439H17.5439V15.7896Z" fill="white"/>
<path d="M3.50878 17.5439H1.75439V19.2983H3.50878V17.5439Z" fill="white"/>
<path d="M5.26318 17.5439H3.50879V19.2983H5.26318V17.5439Z" fill="white"/>
<path d="M7.01757 17.5439H5.26318V19.2983H7.01757V17.5439Z" fill="white"/>
<path d="M14.0351 17.5439H12.2807V19.2983H14.0351V17.5439Z" fill="white"/>
<path d="M15.7895 17.5439H14.0351V19.2983H15.7895V17.5439Z" fill="white"/>
<path d="M17.5439 17.5439H15.7895V19.2983H17.5439V17.5439Z" fill="white"/>
</g>
<defs>
<filter id="filter0_d" x="0" y="0" width="20" height="22" filterUnits="userSpaceOnUse" color-interpolation-filters="sRGB">
<feFlood flood-opacity="0" result="BackgroundImageFix"/>
<feColorMatrix in="SourceAlpha" type="matrix" values="0 0 0 0 0 0 0 0 0 0 0 0 0 0 0 0 0 0 127 0"/>
<feOffset dy="2"/>
<feColorMatrix type="matrix" values="0 0 0 0 0.4 0 0 0 0 0.505882 0 0 0 0 0.631373 0 0 0 0.5 0"/>
<feBlend mode="normal" in2="BackgroundImageFix" result="effect1_dropShadow"/>
<feBlend mode="normal" in="SourceGraphic" in2="effect1_dropShadow" result="shape"/>
</filter>
</defs>
</svg>
