<svg width="15" height="22" viewBox="0 0 15 22" fill="none" xmlns="http://www.w3.org/2000/svg">
<g filter="url(#filter0_d)">
<path d="M8.33336 0H6.66669V1.66667H8.33336V0Z" fill="white"/>
<path d="M6.66667 1.66675H5V3.33341H6.66667V1.66675Z" fill="white"/>
<path d="M8.33336 1.66675H6.66669V3.33341H8.33336V1.66675Z" fill="white"/>
<path d="M9.99998 1.66675H8.33331V3.33341H9.99998V1.66675Z" fill="white"/>
<path d="M4.99998 3.33325H3.33331V4.99992H4.99998V3.33325Z" fill="white"/>
<path d="M6.66667 3.33325H5V4.99992H6.66667V3.33325Z" fill="white"/>
<path d="M8.33336 3.33325H6.66669V4.99992H8.33336V3.33325Z" fill="white"/>
<path d="M9.99998 3.33325H8.33331V4.99992H9.99998V3.33325Z" fill="white"/>
<path d="M11.6667 3.33325H10V4.99992H11.6667V3.33325Z" fill="white"/>
<path d="M3.33335 5H1.66669V6.66667H3.33335V5Z" fill="white"/>
<path d="M4.99998 5H3.33331V6.66667H4.99998V5Z" fill="white"/>
<path d="M6.66667 5H5V6.66667H6.66667V5Z" fill="white"/>
<path d="M8.33336 5H6.66669V6.66667H8.33336V5Z" fill="white"/>
<path d="M9.99998 5H8.33331V6.66667H9.99998V5Z" fill="white"/>
<path d="M11.6667 5H10V6.66667H11.6667V5Z" fill="white"/>
<path d="M13.3333 5H11.6667V6.66667H13.3333V5Z" fill="white"/>
<path d="M3.33335 6.66675H1.66669V8.33341H3.33335V6.66675Z" fill="white"/>
<path d="M4.99998 6.66675H3.33331V8.33341H4.99998V6.66675Z" fill="white"/>
<path d="M6.66667 6.66675H5V8.33341H6.66667V6.66675Z" fill="white"/>
<path d="M8.33336 6.66675H6.66669V8.33341H8.33336V6.66675Z" fill="white"/>
<path d="M9.99998 6.66675H8.33331V8.33341H9.99998V6.66675Z" fill="white"/>
<path d="M11.6667 6.66675H10V8.33341H11.6667V6.66675Z" fill="white"/>
<path d="M13.3333 6.66675H11.6667V8.33341H13.3333V6.66675Z" fill="white"/>
<path d="M6.66667 8.33325H5V9.99992H6.66667V8.33325Z" fill="white"/>
<path d="M8.33336 8.33325H6.66669V9.99992H8.33336V8.33325Z" fill="white"/>
<path d="M9.99998 8.33325H8.33331V9.99992H9.99998V8.33325Z" fill="white"/>
<path d="M1.66667 10H0V11.6667H1.66667V10Z" fill="white"/>
<path d="M3.33335 10H1.66669V11.6667H3.33335V10Z" fill="white"/>
<path d="M6.66667 10H5V11.6667H6.66667V10Z" fill="white"/>
<path d="M8.33336 10H6.66669V11.6667H8.33336V10Z" fill="white"/>
<path d="M9.99998 10H8.33331V11.6667H9.99998V10Z" fill="white"/>
<path d="M13.3333 10H11.6667V11.6667H13.3333V10Z" fill="white"/>
<path d="M15 10H13.3333V11.6667H15V10Z" fill="white"/>
<path d="M1.66667 11.6667H0V13.3334H1.66667V11.6667Z" fill="white"/>
<path d="M3.33335 11.6667H1.66669V13.3334H3.33335V11.6667Z" fill="white"/>
<path d="M6.66667 11.6667H5V13.3334H6.66667V11.6667Z" fill="white"/>
<path d="M8.33336 11.6667H6.66669V13.3334H8.33336V11.6667Z" fill="white"/>
<path d="M9.99998 11.6667H8.33331V13.3334H9.99998V11.6667Z" fill="white"/>
<path d="M13.3333 11.6667H11.6667V13.3334H13.3333V11.6667Z" fill="white"/>
<path d="M15 11.6667H13.3333V13.3334H15V11.6667Z" fill="white"/>
<path d="M1.66667 13.3333H0V14.9999H1.66667V13.3333Z" fill="white"/>
<path d="M3.33335 13.3333H1.66669V14.9999H3.33335V13.3333Z" fill="white"/>
<path d="M13.3333 13.3333H11.6667V14.9999H13.3333V13.3333Z" fill="white"/>
<path d="M15 13.3333H13.3333V14.9999H15V13.3333Z" fill="white"/>
<path d="M1.66667 15H0V16.6667H1.66667V15Z" fill="white"/>
<path d="M3.33335 15H1.66669V16.6667H3.33335V15Z" fill="white"/>
<path d="M4.99998 15H3.33331V16.6667H4.99998V15Z" fill="white"/>
<path d="M6.66667 15H5V16.6667H6.66667V15Z" fill="white"/>
<path d="M8.33336 15H6.66669V16.6667H8.33336V15Z" fill="white"/>
<path d="M9.99998 15H8.33331V16.6667H9.99998V15Z" fill="white"/>
<path d="M11.6667 15H10V16.6667H11.6667V15Z" fill="white"/>
<path d="M13.3333 15H11.6667V16.6667H13.3333V15Z" fill="white"/>
<path d="M15 15H13.3333V16.6667H15V15Z" fill="white"/>
<path d="M1.66667 16.6667H0V18.3334H1.66667V16.6667Z" fill="white"/>
<path d="M3.33335 16.6667H1.66669V18.3334H3.33335V16.6667Z" fill="white"/>
<path d="M4.99998 16.6667H3.33331V18.3334H4.99998V16.6667Z" fill="white"/>
<path d="M6.66667 16.6667H5V18.3334H6.66667V16.6667Z" fill="white"/>
<path d="M8.33336 16.6667H6.66669V18.3334H8.33336V16.6667Z" fill="white"/>
<path d="M9.99998 16.6667H8.33331V18.3334H9.99998V16.6667Z" fill="white"/>
<path d="M11.6667 16.6667H10V18.3334H11.6667V16.6667Z" fill="white"/>
<path d="M13.3333 16.6667H11.6667V18.3334H13.3333V16.6667Z" fill="white"/>
<path d="M15 16.6667H13.3333V18.3334H15V16.6667Z" fill="white"/>
<path d="M1.66667 18.3333H0V19.9999H1.66667V18.3333Z" fill="white"/>
<path d="M3.33335 18.3333H1.66669V19.9999H3.33335V18.3333Z" fill="white"/>
<path d="M4.99998 18.3333H3.33331V19.9999H4.99998V18.3333Z" fill="white"/>
<path d="M6.66667 18.3333H5V19.9999H6.66667V18.3333Z" fill="white"/>
<path d="M8.33336 18.3333H6.66669V19.9999H8.33336V18.3333Z" fill="white"/>
<path d="M9.99998 18.3333H8.33331V19.9999H9.99998V18.3333Z" fill="white"/>
<path d="M11.6667 18.3333H10V19.9999H11.6667V18.3333Z" fill="white"/>
<path d="M13.3333 18.3333H11.6667V19.9999H13.3333V18.3333Z" fill="white"/>
<path d="M15 18.3333H13.3333V19.9999H15V18.3333Z" fill="white"/>
</g>
<defs>
<filter id="filter0_d" x="0" y="0" width="15" height="22" filterUnits="userSpaceOnUse" color-interpolation-filters="sRGB">
<feFlood flood-opacity="0" result="BackgroundImageFix"/>
<feColorMatrix in="SourceAlpha" type="matrix" values="0 0 0 0 0 0 0 0 0 0 0 0 0 0 0 0 0 0 127 0"/>
<feOffset dy="2"/>
<feColorMatrix type="matrix" values="0 0 0 0 0.4 0 0 0 0 0.505882 0 0 0 0 0.631373 0 0 0 0.5 0"/>
<feBlend mode="normal" in2="BackgroundImageFix" result="effect1_dropShadow"/>
<feBlend mode="normal" in="SourceGraphic" in2="effect1_dropShadow" result="shape"/>
</filter>
</defs>
</svg>
